Coordinates
version=1
nRows=13
nColumns=40
inDegrees=yes

Units are S.I. units (second, meters, Newtons, ...)
Angles are in degrees.

endheader
time	pelvis_tilt	pelvis_list	pelvis_rotation	pelvis_tx	pelvis_ty	pelvis_tz	hip_flexion_r	hip_adduction_r	hip_rotation_r	knee_angle_r	knee_angle_r_beta	ankle_angle_r	subtalar_angle_r	mtp_angle_r	hip_flexion_l	hip_adduction_l	hip_rotation_l	knee_angle_l	knee_angle_l_beta	ankle_angle_l	subtalar_angle_l	mtp_angle_l	lumbar_extension	lumbar_bending	lumbar_rotation	arm_flex_r	arm_add_r	arm_rot_r	elbow_flex_r	pro_sup_r	wrist_flex_r	wrist_dev_r	arm_flex_l	arm_add_l	arm_rot_l	elbow_flex_l	pro_sup_l	wrist_flex_l	wrist_dev_l
      0.00000000	      1.91293168	     -2.92140913	      3.31466453	     -1.37997490	      0.90257430	     -1.39466542	      8.80072534	      8.36248752	    -14.71307958	    -21.53410040	     -0.37584095	      7.13313337	     -4.80353985	     -0.41898989	     10.40700279	      9.33748546	      7.00087492	    -60.46944543	     -1.05539092	     -2.25122327	     10.09620712	     -5.19081587	     -7.83133288	      7.67182356	     -0.69333533	      5.67009365	    -11.11031407	     18.11893865	     14.44014672	     89.95437384	      0.00000000	      0.00000000	      8.77379945	     13.14867583	     -3.12964903	     55.30883050	     89.95437384	      0.00000000	      0.00000000
      0.01000000	      2.01309552	     -2.68358244	      2.99390401	     -1.36809731	      0.90382002	     -1.39499448	      7.32856180	      8.24280790	    -14.32495704	    -20.71941165	     -0.36162195	      7.68848159	     -4.23858519	     -0.44508237	     11.84792642	      8.68220500	      6.26627683	    -60.25187772	     -1.05159365	     -1.03745301	      9.59270693	     -5.59342198	     -7.97335846	      7.26898349	     -0.23892824	      6.23014986	    -11.10017615	     18.22152614	     14.82120836	     89.95437384	      0.00000000	      0.00000000	      8.06958271	     12.80230798	     -3.53136256	     54.51657793	     89.95437384	      0.00000000	      0.00000000
      0.02000000	      2.45450254	     -2.35053190	      2.60038118	     -1.35577545	      0.90549163	     -1.39532212	      5.37340311	      7.95088669	    -14.27679144	    -19.75107446	     -0.34472128	      8.05419222	     -3.24283228	     -0.46447511	     12.65547537	      8.03838019	      5.83873628	    -59.49342525	     -1.03835615	     -0.18783346	      8.79911653	     -6.70642982	     -8.47061454	      6.76610861	      0.26685318	      6.75826428	    -11.11820913	     18.41552852	     15.30382192	     89.95437384	      0.00000000	      0.00000000	      7.29729623	     12.49328314	     -3.92106335	     53.72148535	     89.95437384	      0.00000000	      0.00000000
      0.03000000	      2.28267865	     -2.07357573	      2.18018539	     -1.34419023	      0.90585089	     -1.39555559	      4.35817956	      7.69491832	    -14.01745873	    -19.20022957	     -0.33510722	      8.61825816	     -2.85125521	     -0.55352669	     14.31577253	      7.36773981	      5.35884379	    -58.76569823	     -1.02565492	      0.78790685	      8.51041776	     -6.91837343	     -8.33264718	      6.30097765	      0.66854282	      7.30127372	    -11.10095261	     18.50796518	     15.87945891	     89.95437384	      0.00000000	      0.00000000	      6.53471358	     12.11684108	     -4.08900003	     52.63709896	     89.95437384	      0.00000000	      0.00000000
      0.04000000	      2.09869958	     -1.89007093	      1.75380763	     -1.33228435	      0.90591443	     -1.39555652	      3.40854445	      7.50544254	    -14.00944018	    -18.75340943	     -0.32730874	      9.04785871	     -2.63860988	     -0.61530786	     15.86447879	      6.93986834	      5.12543199	    -57.69449538	     -1.00695890	      1.44737084	      8.24850053	     -6.96877226	     -8.11723601	      5.91276526	      1.03537227	      7.80269203	    -11.07361868	     18.48257627	     16.46439258	     89.95437384	      0.00000000	      0.00000000	      5.63099526	     11.77497890	     -4.20991030	     51.58835641	     89.95437384	      0.00000000	      0.00000000
      0.05000000	      2.73258494	     -1.52142285	      1.27472004	     -1.32016610	      0.90716284	     -1.39587766	      1.23788101	      7.15369215	    -13.60704984	    -17.72610466	     -0.30937889	      9.58037273	     -1.47635188	     -0.92679021	     16.17964859	      6.22143311	      4.94648060	    -55.97733225	     -0.97698875	      2.38300396	      8.30825211	     -7.81675046	     -8.88234837	      5.36357134	      1.52412954	      8.26475571	    -11.20553608	     18.67928606	     17.45529263	     89.95437384	      0.00000000	      0.00000000	      5.02081686	     11.36905176	     -4.37753525	     50.20158994	     89.95437384	      0.00000000	      0.00000000
      0.06000000	      2.84256193	     -1.26522753	      0.81088636	     -1.30810654	      0.90717622	     -1.39599085	     -0.09364656	      6.83973861	    -13.48867960	    -17.18102450	     -0.29986545	     10.08794809	     -0.69837347	     -1.31784910	     17.12543552	      5.71913008	      4.82604610	    -54.24348218	     -0.94672736	      3.06090249	      8.28910503	     -8.55671600	     -9.03188808	      4.91663443	      1.93759396	      8.67796627	    -11.28783500	     18.88639043	     18.34983273	     89.95437384	      0.00000000	      0.00000000	      4.28398496	     10.97065855	     -4.45107122	     48.72747980	     89.95437384	      0.00000000	      0.00000000
      0.07000000	      2.54259474	     -1.30993662	      0.46246672	     -1.29655560	      0.90607833	     -1.39584155	     -0.68302513	      6.84216857	    -13.67237966	    -17.09146059	     -0.29830226	     10.42286911	     -0.65942825	     -1.37208457	     18.67561575	      5.70474079	      4.79953115	    -52.54205242	     -0.91703181	      3.39456295	      8.07384007	     -8.45088722	     -8.75417831	      4.76572039	      2.10076484	      9.26044477	    -11.23649820	     18.83379820	     19.04220164	     89.95437384	      0.00000000	      0.00000000	      3.32766871	     10.72090588	     -4.54447289	     47.51476038	     89.95437384	      0.00000000	      0.00000000
      0.08000000	      3.02009620	     -0.93716902	     -0.11129153	     -1.28437967	      0.90614447	     -1.39601292	     -2.48832872	      6.43805492	    -13.01516395	    -16.38877072	     -0.28603801	     11.17716082	      0.19409996	     -1.76546592	     18.88755924	      5.07682272	      4.78878276	    -50.16447884	     -0.87553532	      4.21304034	      8.00061647	     -8.81684580	     -9.32078494	      4.20012238	      2.71547037	      9.44975427	    -11.47871000	     18.89691044	     20.44945515	     89.95437384	      0.00000000	      0.00000000	      2.95934995	     10.13794035	     -4.46971036	     45.27790987	     89.95437384	      0.00000000	      0.00000000
      0.09000000	      3.20005837	     -0.70347539	     -0.62367624	     -1.27262197	      0.90536230	     -1.39632759	     -3.65830748	      6.06907041	    -12.79682413	    -16.23351716	     -0.28332832	     11.72619322	      0.74312257	     -2.13707374	     19.49484210	      4.70864838	      4.96947151	    -47.68979141	     -0.83234388	      4.45531360	      7.86749265	     -9.03405247	     -9.59059089	      3.80125878	      3.06795264	      9.96649992	    -11.55788436	     18.82700699	     21.36557221	     89.95437384	      0.00000000	      0.00000000	      2.36224749	      9.68166819	     -4.43007627	     43.30811179	     89.95437384	      0.00000000	      0.00000000
      0.10000000	      3.16226178	     -0.63722513	     -0.90881520	     -1.26082251	      0.90384383	     -1.39659385	     -4.56335265	      5.95721850	    -12.60477000	    -16.11572336	     -0.28127243	     12.37209281	      0.95280507	     -2.34377273	     20.39665011	      4.47604555	      4.75806017	    -45.24567162	     -0.78968594	      4.65076724	      7.47299128	     -9.04248714	     -9.56757919	      3.57993470	      3.23871087	     10.38351213	    -11.62339500	     18.88504516	     22.31255704	     89.95437384	      0.00000000	      0.00000000	      1.84293249	      9.21546720	     -4.40884061	     40.98643123	     89.95437384	      0.00000000	      0.00000000
      0.11000000	      3.36152755	     -0.49782316	     -1.51830652	     -1.24915701	      0.90256696	     -1.39653338	     -5.65740071	      5.65639502	    -12.33045699	    -16.12688169	     -0.28146718	     13.00369202	      1.35581712	     -2.65262157	     20.81783870	      4.34153149	      5.07317120	    -42.45581671	     -0.74099379	      4.57173170	      6.99725305	     -9.04182825	     -9.89857311	      3.23444512	      3.71683318	     10.83072140	    -11.75977217	     19.04602369	     23.39267284	     89.95437384	      0.00000000	      0.00000000	      1.41852533	      8.71226540	     -4.24093387	     38.62834597	     89.95437384	      0.00000000	      0.00000000
      0.12000000	      3.17054308	     -0.79119441	     -1.71785109	     -1.23727945	      0.90017741	     -1.39653718	     -6.29539498	      5.89692199	    -12.50972810	    -16.21508172	     -0.28300656	     13.40794369	      1.40694846	     -2.73661982	     21.91513525	      4.72288905	      5.29667723	    -40.02001497	     -0.69848103	      4.61260773	      6.74440864	     -8.90975905	     -9.74200548	      3.38950244	      3.59866198	     11.40818850	    -11.65870219	     19.08126014	     24.12638856	     89.95437384	      0.00000000	      0.00000000	      0.47203178	      8.50624126	     -4.30560580	     36.95337191	     89.95437384	      0.00000000	      0.00000000
